<svg height="512" viewBox="0 0 64 64" width="512" xmlns="http://www.w3.org/2000/svg" xmlns:xlink="http://www.w3.org/1999/xlink"><linearGradient id="linear-gradient" gradientUnits="userSpaceOnUse" x1="4.328" x2="48.269" y1="52.355" y2="10.506"><stop offset=".133" stop-color="#a617ff"/><stop offset=".477" stop-color="#6359e3"/><stop offset="1" stop-color="#5bcbfa"/></linearGradient><linearGradient id="linear-gradient-2" x1="3.439" x2="47.38" xlink:href="#linear-gradient" y1="51.421" y2="9.573"/><linearGradient id="linear-gradient-3" x1="-2.165" x2="41.776" xlink:href="#linear-gradient" y1="45.538" y2="3.689"/><linearGradient id="linear-gradient-4" x1="-8.161" x2="35.779" xlink:href="#linear-gradient" y1="39.241" y2="-2.608"/><linearGradient id="linear-gradient-5" x1="-.351" x2="43.59" xlink:href="#linear-gradient" y1="47.442" y2="5.594"/><linearGradient id="linear-gradient-6" x1="2.015" x2="45.956" xlink:href="#linear-gradient" y1="49.926" y2="8.077"/><linearGradient id="linear-gradient-7" x1="17.812" x2="61.753" xlink:href="#linear-gradient" y1="66.513" y2="24.664"/><linearGradient id="linear-gradient-8" x1="15.989" x2="59.93" xlink:href="#linear-gradient" y1="64.599" y2="22.75"/><linearGradient id="linear-gradient-9" x1="22.896" x2="66.837" xlink:href="#linear-gradient" y1="71.851" y2="30.003"/><g id="mail-files-report-business-3" data-name="mail-files-report-business"><path d="m23 33h18v-14h-18zm4-12.618 11.236 5.618-11.236 5.618z" fill="url(#linear-gradient)"/><path d="m29 23.618v4.764l4.764-2.382z" fill="url(#linear-gradient-2)"/><path d="m32 11.126-3.622 1.874h7.244z" fill="url(#linear-gradient-3)"/><path d="m4.978 25.102 2.022 1.324v-2.372z" fill="url(#linear-gradient-4)"/><path d="m4 52.255 20.461-11.995-20.461-13.41z" fill="url(#linear-gradient-5)"/><path d="m9 27.737 17.386 11.4 5.614-3.296 5.614 3.291 17.386-11.395v-12.737h-46zm9-3.737h-2v-2h2zm28-7h6v2h-6zm0 5h6v2h-6zm-25-5h22v18h-22zm-9 1h6v2h-6zm0 4h2v2h-2z" fill="url(#linear-gradient-6)"/><path d="m6.683 53h50.634l-25.317-14.841z" fill="url(#linear-gradient-7)"/><path d="m57 26.426 2.022-1.324-2.022-1.048z" fill="url(#linear-gradient-8)"/><path d="m60 52.255v-25.405l-20.461 13.41z" fill="url(#linear-gradient-9)"/></g></svg>